<?xml version="1.0" ?><svg enable-background="new 0 0 64 64" height="64px" id="Layer_1" version="1.1" viewBox="0 0 64 64" width="64px" xml:space="preserve" xmlns="http://www.w3.org/2000/svg" xmlns:xlink="http://www.w3.org/1999/xlink"><g opacity="0.2"><path d="M44,56H30c-1.104,0-2-0.896-2-2s0.896-2,2-2h14c1.104,0,2,0.896,2,2S45.104,56,44,56z" fill="#231F20"/></g><circle cx="32" cy="32" fill="#76C2AF" r="32"/><path d="M17,33c3.308,0,6,2.692,6,6s-2.692,6-6,6s-6-2.692-6-6S13.692,33,17,33 M17,30  c-4.971,0-9,4.029-9,9s4.029,9,9,9s9-4.029,9-9S21.971,30,17,30L17,30z" fill="#231F20" opacity="0.2"/><path d="M47,33c3.308,0,6,2.692,6,6s-2.692,6-6,6s-6-2.692-6-6S43.692,33,47,33 M47,30  c-4.971,0-9,4.029-9,9s4.029,9,9,9s9-4.029,9-9S51.971,30,47,30L47,30z" fill="#231F20" opacity="0.2"/><g><path d="M17,31c3.308,0,6,2.692,6,6s-2.692,6-6,6s-6-2.692-6-6S13.692,31,17,31 M17,28c-4.971,0-9,4.029-9,9   s4.029,9,9,9s9-4.029,9-9S21.971,28,17,28L17,28z" fill="#4F5D73"/></g><g><path d="M47,31c3.308,0,6,2.692,6,6s-2.692,6-6,6s-6-2.692-6-6S43.692,31,47,31 M47,28c-4.971,0-9,4.029-9,9   s4.029,9,9,9s9-4.029,9-9S51.971,28,47,28L47,28z" fill="#4F5D73"/></g><g opacity="0.2"><path d="M33,40H18c-0.829,0-1.5-0.671-1.5-1.5S17.171,37,18,37h14.5l1.6-1.2c0.662-0.496,1.603-0.363,2.1,0.3   c0.497,0.663,0.362,1.603-0.3,2.1l-2,1.5C33.64,39.894,33.325,40,33,40z" fill="#231F20"/></g><polyline fill="none" points="  18,36.5 33,36.5 35,35 " stroke="#FFFFFF" stroke-linecap="round" stroke-linejoin="round" stroke-miterlimit="10" stroke-width="3"/><line fill="none" stroke="#F5CF87" stroke-linecap="round" stroke-linejoin="round" stroke-miterlimit="10" stroke-width="3" x1="43" x2="44" y1="21.15" y2="23"/><g opacity="0.2"><path d="M54.999,32.393c-0.338,0-0.679-0.114-0.959-0.348c-5.232-4.36-11.387-1.8-11.449-1.773   c-0.758,0.328-1.642-0.026-1.97-0.788c-0.326-0.761,0.026-1.643,0.788-1.97c0.321-0.137,7.922-3.297,14.551,2.227   c0.636,0.53,0.722,1.476,0.192,2.113C55.855,32.209,55.429,32.393,54.999,32.393z" fill="#231F20"/></g><g opacity="0.2"><path d="M26,28.393h-4.573c8.793,10.282,15.573,4,15.573,4C37,29.466,32,28.393,26,28.393z" fill="#231F20"/></g><g opacity="0.2"><path d="M32.382,35.969c-3.339,0-6.869-2.042-10.497-6.073c-0.001-0.001-0.002-0.002-0.003-0.003H14   c-2.424,0-4.092,1.194-4.108,1.206c-0.666,0.486-1.604,0.345-2.094-0.318c-0.49-0.663-0.357-1.594,0.302-2.088   c0.098-0.073,2.439-1.8,5.9-1.8h12c10.332,0,12.5,2.991,12.5,5.5c0,0.331-0.109,0.652-0.311,0.915   c-0.079,0.103-1.978,2.521-5.492,2.656C32.592,35.967,32.487,35.969,32.382,35.969z M26.11,29.893   c2.34,2.093,4.545,3.148,6.471,3.073c1.318-0.051,2.254-0.623,2.768-1.042C34.674,30.881,31.72,29.905,26.11,29.893z" fill="#231F20"/></g><path d="  M42,26c0,0,7-3,13,2" fill="none" stroke="#C75C5C" stroke-linecap="round" stroke-linejoin="round" stroke-miterlimit="10" stroke-width="3"/><path d="M26,25.5h-4.573C30.22,35.782,37,29.5,37,29.5C37,26.574,32,25.5,26,25.5z" fill="#E0995E"/><path d="  M9,27c0,0,2-1.5,5-1.5h12c6,0,11,1.074,11,4c0,0-5,6.5-14-3.5" fill="none" stroke="#C75C5C" stroke-linecap="round" stroke-linejoin="round" stroke-miterlimit="10" stroke-width="3"/><g opacity="0.2"><path d="M47.001,40.5c-0.533,0-1.05-0.285-1.321-0.787L36.105,22H32c-0.829,0-1.5-0.671-1.5-1.5S31.171,19,32,19h5   c0.551,0,1.058,0.302,1.319,0.787l10,18.5c0.394,0.729,0.123,1.639-0.606,2.033C47.486,40.442,47.242,40.5,47.001,40.5z" fill="#231F20"/></g><polyline fill="none" points="  32,18.5 37,18.5 47,37 " stroke="#FFFFFF" stroke-linecap="round" stroke-linejoin="round" stroke-miterlimit="10" stroke-width="3"/></svg>